# xmcd
# 
# Track frame offsets:
#     150
#     3695
#     19055
#     39128
#     66123
#     88084
#     101073
#     123743
#     144276
# 
# Disc length: 2413
# 
# Revision: 1
# Processed by: cddbd v1.5.2PL0 Copyright (c) Steve Scherf et al.
# Submitted via: fre:ac v1.0.31
# 
DISCID=72096b09
DTITLE=Shooter Jennings - Countach (for Giorgio)
DYEAR=2016
DGENRE=Country
TTITLE0=Loading...
TTITLE1=Countach
TTITLE2=From Here To Eternity
TTITLE3=I'm Left, You're Right, She's Gone
TTITLE4=Born To Die
TTITLE5=Chase
TTITLE6=Love Kills
TTITLE7=The NeverEnding Story
TTITLE8=Cat People
EXTD=
EXTT0=
EXTT1=
EXTT2=
EXTT3=
EXTT4=
EXTT5=
EXTT6=
EXTT7=
EXTT8=
PLAYORDER=
